<svg xmlns="http://www.w3.org/2000/svg" viewBox="0 0 24 24"><path fill="none" d="M0 0h24v24H0z"/><path fill-rule="evenodd" clip-rule="evenodd" fill="#4285F4" d="M10 16.5l6-4.5-6-4.5z"/><path fill-rule="evenodd" clip-rule="evenodd" fill="#EA4335" d="M20 12h2v7.5a2.5 2.5 0 0 1-2.5 2.5H12v-2h7a1 1 0 0 0 1-1v-7z"/><path fill-rule="evenodd" clip-rule="evenodd" fill="#FBBC04" d="M20 12V5a1 1 0 0 0-1-1h-7V2h7.6A2.4 2.4 0 0 1 22 4.4V12h-2z"/><path fill-rule="evenodd" clip-rule="evenodd" fill="#34A853" d="M12 20v2H5a3 3 0 0 1-3-3V4.4A2.4 2.4 0 0 1 4.4 2H12v2H5a1 1 0 0 0-1 1v14a1 1 0 0 0 1 1h7z"/></svg>
